<?xml version="1.0" encoding="UTF-8" standalone="no"?>
<!DOCTYPE svg PUBLIC "-//W3C//DTD SVG 1.1//EN" "http://www.w3.org/Graphics/SVG/1.1/DTD/svg11.dtd">
<svg width="100%" height="100%" viewBox="0 0 430 430" version="1.1" xmlns="http://www.w3.org/2000/svg" xmlns:xlink="http://www.w3.org/1999/xlink" xml:space="preserve" xmlns:serif="http://www.serif.com/" style="fill-rule:evenodd;clip-rule:evenodd;stroke-linejoin:round;stroke-miterlimit:2;">
    <g transform="matrix(0.396474,-0.00889265,0.00889265,0.396474,-29.8362,-76.4819)">
        <path d="M577.033,370.483L539.953,382.84L515.24,308.679L552.32,296.323C552.32,296.323 637.313,267.986 732.933,249.516C825.97,231.545 896.694,226.17 896.694,226.17C917.928,224.546 936.554,240.218 938.583,261.417C938.583,261.417 951.94,371.309 833.989,503.959C803.412,538.346 778.003,567.374 757.438,591.135C771.579,590.188 786.614,589.756 802.266,590.107C877.85,591.803 953.268,606.834 953.268,606.834C964.473,609.068 974.139,616.093 979.724,626.06C985.309,636.027 986.252,647.939 982.307,658.662C982.307,658.662 923.656,817.549 843.387,926.488C766.027,1031.48 635.69,1128.04 635.69,1128.04L604.257,1151.27L557.799,1088.4L589.231,1065.17C589.231,1065.17 709.326,976.655 780.455,880.119C829.335,813.781 869.439,727.397 891.206,675.922C865.92,672.472 833.234,668.991 800.513,668.257C727.287,666.615 670.252,685.141 670.252,685.141C653.785,690.557 635.719,684.48 625.873,670.214C616.026,655.948 616.753,636.901 627.657,623.426C627.657,623.426 672.984,567.388 775.573,452.015C827.052,394.121 847.521,342.655 855.608,309.137C828.088,312.573 790.402,318.03 747.758,326.267C657.376,343.725 577.033,370.483 577.033,370.483Z" style="fill:rgb(29,85,137);"/>
    </g>
    <g transform="matrix(0.366596,0.0229693,-0.0229693,0.366596,-12.5905,-78.0734)">
        <path d="M1133.94,278.212L1175.26,269.651L1192.38,352.292L1151.06,360.853C1151.06,360.853 1007.89,390.666 723.691,492.826C404.14,607.693 195.359,756.902 195.359,756.902L161.048,781.467L111.917,712.846L146.228,688.28C146.228,688.28 363.018,532.792 695.142,413.405C986.882,308.534 1133.94,278.212 1133.94,278.212Z" style="fill:rgb(29,85,137);"/>
    </g>
    <g transform="matrix(0.367223,-0.00823657,0.00823657,0.367223,-10.0042,-58.9669)">
        <path d="M407.646,908.464C407.815,907.168 407.984,905.869 408.153,904.568C436.98,682.502 416.565,547.83 416.565,547.83L410.117,506.128L493.522,493.231L499.97,534.933C499.97,534.933 519.176,656.891 498.145,861.334C588.345,816.01 666.101,781.149 666.101,781.149L704.608,763.889L739.127,840.902L700.621,858.162C700.621,858.162 593.119,906.335 485.58,962.574C457.534,1168.68 431.365,1298.34 431.365,1298.34C428.595,1312.08 419.188,1323.54 406.257,1328.94C393.326,1334.34 378.56,1332.97 366.845,1325.28C366.845,1325.28 279.083,1267.37 241.337,1230.58C187.458,1178.08 150.84,1128.44 150.84,1128.44C137.179,1109.96 140.823,1083.94 159.035,1069.92C159.035,1069.92 264.379,988.837 376.637,925.598C386.789,919.879 397.158,914.155 407.646,908.464ZM393.214,1013.48C333.926,1048.56 279.034,1086.69 245.207,1111.12C259.225,1127.59 278.125,1148.59 300.239,1170.14C315.099,1184.62 338.652,1202.68 360.412,1218.38C368.65,1172.02 380.433,1101.86 393.214,1013.48Z" style="fill:rgb(29,85,137);"/>
    </g>
</svg>
